<?xml version="1.0" standalone="no"?><!DOCTYPE svg PUBLIC "-//W3C//DTD SVG 1.1//EN" "http://www.w3.org/Graphics/SVG/1.1/DTD/svg11.dtd"><svg t="1481096002308" class="icon" style="" viewBox="0 0 1024 1024" version="1.1" xmlns="http://www.w3.org/2000/svg" p-id="1072" xmlns:xlink="http://www.w3.org/1999/xlink" width="20" height="20"><defs><style type="text/css"></style></defs><path d="M818.641377 610.479919 961.34859 284.087197c3.391237-7.757684 2.639107-16.721847-2.006703-23.804149-4.644787-7.078209-12.550851-11.374048-21.012569-11.374048L330.807776 248.909l-22.042016-102.207823c-2.490727-11.55108-12.70537-19.811208-24.558325-19.811208L84.479555 126.889969c-13.857613 0-25.106818 11.249205-25.106818 25.106818 0 13.859659 11.249205 25.107841 25.106818 25.107841l179.490977 0 114.266463 529.936511c-40.754193 11.751648-70.832232 48.984644-70.832232 93.472881 0 53.885258 43.837414 97.698113 97.692996 97.698113 53.855582 0 97.696066-43.842531 97.696066-97.698113 0-17.497513-4.999874-33.689287-13.08297-47.901986l194.479343 0c-8.084119 14.213723-13.077853 30.404474-13.077853 47.901986 0 53.885258 43.837414 97.698113 97.692996 97.698113 53.854559 0 97.69095-43.842531 97.69095-97.698113 0-53.854559-43.837414-97.691973-97.69095-97.691973-2.136663 0-4.118807 0.502443-6.202259 0.627287L428.145685 703.449333c-0.072655-1.125637 0.200568-2.208295-0.048095-3.361561l-16.072047-74.543763 383.590422 0C805.610596 625.546056 814.623877 619.645672 818.641377 610.479919L818.641377 610.479919zM405.09776 860.547301c-33.090653 0-60.028165-26.936489-60.028165-60.033281 0-33.090653 26.937512-60.027142 60.028165-60.027142 33.095769 0 60.033281 26.936489 60.033281 60.027142C465.130018 833.610812 438.192505 860.547301 405.09776 860.547301L405.09776 860.547301zM828.836577 800.515043c0 33.096792-26.941606 60.033281-60.032258 60.033281-33.091676 0-60.033281-26.936489-60.033281-60.033281 0-33.090653 26.941606-60.027142 60.033281-60.027142C801.894971 740.487901 828.836577 767.42439 828.836577 800.515043L828.836577 800.515043zM405.925614 575.330374l-63.74379-276.181133 557.730531 0L779.172457 575.330374 405.925614 575.330374 405.925614 575.330374zM405.925614 575.330374" p-id="1073" fill="#ff6700"></path></svg>